<svg width="1280" height="720" xmlns="http://www.w3.org/2000/svg" xmlns:xlink="http://www.w3.org/1999/xlink" overflow="hidden"><defs><clipPath id="clip0"><rect x="0" y="0" width="1280" height="720"/></clipPath><clipPath id="clip1"><rect x="8" y="31" width="1264" height="658"/></clipPath><clipPath id="clip2"><rect x="8" y="31" width="1264" height="658"/></clipPath><clipPath id="clip3"><rect x="8" y="31" width="1264" height="935"/></clipPath></defs><g clip-path="url(#clip0)"><rect x="0" y="0" width="1280" height="720" fill="#EEF5EA"/><g clip-path="url(#clip1)"><g clip-path="url(#clip2)"><g clip-path="url(#clip3)"><path d="M204.19 611.894C204.19 632.446 187.53 649.106 166.979 649.106 146.427 649.106 129.767 632.446 129.767 611.894 129.767 591.343 146.427 574.683 166.978 574.683 187.53 574.683 204.19 591.343 204.19 611.894ZM1044.84 611.894C1044.84 632.446 1028.18 649.106 1007.63 649.106 987.076 649.106 970.416 632.446 970.416 611.894 970.416 591.343 987.076 574.683 1007.63 574.683 1028.18 574.683 1044.84 591.343 1044.84 611.894ZM1224.15 474.858C1224.15 488.365 1213.2 499.314 1199.7 499.314 1186.19 499.314 1175.24 488.365 1175.24 474.858 1175.24 461.351 1186.19 450.402 1199.7 450.402 1213.2 450.402 1224.15 461.351 1224.15 474.858ZM1262.59 161.236C1262.59 185.974 1242.54 206.028 1217.8 206.028 1193.07 206.028 1173.01 185.974 1173.01 161.236 1173.01 136.498 1193.07 116.445 1217.8 116.444 1242.54 116.444 1262.59 136.498 1262.59 161.236ZM656.213 33.0768C656.213 51.3446 641.404 66.1536 623.136 66.1537 604.868 66.1537 590.059 51.3447 590.059 33.0769 590.059 14.809 604.868 2.61799e-05 623.136 2.61799e-05 641.404 3.64584e-05 656.213 14.809 656.213 33.0769ZM885.67 178.126C885.67 203.431 865.156 223.944 839.852 223.944 814.547 223.944 794.033 203.431 794.033 178.126 794.033 152.821 814.547 132.307 839.852 132.307 865.156 132.307 885.67 152.821 885.67 178.126ZM897.385 478.209C897.385 513.983 868.384 542.984 832.609 542.984 796.835 542.984 767.834 513.983 767.834 478.209 767.834 442.434 796.835 413.433 832.609 413.433 868.384 413.433 897.385 442.434 897.385 478.209ZM569.386 548.497C569.386 576.66 546.556 599.491 518.393 599.491 490.23 599.491 467.399 576.66 467.399 548.497 467.399 520.334 490.23 497.504 518.393 497.504 546.556 497.504 569.386 520.334 569.386 548.497ZM384.667 413.433C384.667 457.566 348.89 493.342 304.758 493.342 260.626 493.342 224.849 457.566 224.849 413.433 224.849 369.301 260.626 333.525 304.758 333.525 348.89 333.525 384.667 369.301 384.667 413.433ZM563.873 248.063C563.873 276.987 540.426 300.434 511.502 300.434 482.578 300.434 459.13 276.987 459.13 248.063 459.13 219.139 482.578 195.691 511.502 195.691 540.426 195.691 563.873 219.139 563.874 248.063ZM297.462 88.4211C297.462 113.159 277.408 133.213 252.67 133.213 227.933 133.213 207.879 113.159 207.879 88.4211 207.879 63.6834 227.933 43.6295 252.67 43.6295 277.408 43.6295 297.462 63.6834 297.462 88.421ZM78.071 318.27C78.071 339.829 60.5942 357.305 39.0355 357.305 17.4768 357.305 6.30103e-06 339.829 1.34169e-05 318.27 1.42075e-05 296.711 17.4768 279.234 39.0355 279.234 60.5942 279.234 78.071 296.711 78.071 318.27ZM798.099 441.489 1025.71 609.237 1013.16 626.26 785.553 458.512ZM843.189 178.112 843.189 460.86 822.043 460.86 822.043 178.112ZM142.216 616.468 309.964 388.857 326.986 401.402 159.238 629.013ZM481.111 261.975 622.484 15.9847 640.881 26.5577 499.508 272.548ZM526.167 544.288 797.604 467.946 803.314 488.246 531.876 564.588ZM1036.48 285.222 1223.19 134.399 1236.48 150.848 1049.76 301.672ZM1055.37 279.216 1206.1 465.817 1189.65 479.105 1038.92 292.503ZM619.529 17.7448 853.134 177.04 841.221 194.51 607.616 35.2155ZM808.455 149.96 1058.73 281.524 1048.89 300.241 798.616 168.677ZM316.612 404.975 550.217 564.27 538.303 581.741 304.698 422.446ZM507.484 228.641 817.956 457.457 807.102 472.184 496.63 243.368ZM278.261 92.3997 515.581 246.105 504.086 263.854 266.766 110.148ZM519.643 238.888 319.71 438.821 304.758 423.868 504.691 223.936ZM40.3858 308.003 301.629 416.16 293.54 435.698 32.297 327.54Z" fill="#FFFFFF" transform="matrix(1.00111 0 0 1 8 31.0545)"/><text fill="#FFFFFF" font-family="Arial,Arial_MSFontService,sans-serif" font-weight="700" font-size="71" transform="matrix(4.77732 0 0 4.77201 -4.24259 962)">SA<tspan font-size="71" x="94.614" y="0">L</tspan><tspan font-size="71" x="128.828" y="0">TED</tspan></text></g></g></g></g></svg>